<?xml version="1.0" encoding="UTF-8" standalone="no"?>
<svg
   version="1.1"
   width="1880"
   height="1880"
   viewBox="0 0 1880 1880"
   xmlns="http://www.w3.org/2000/svg">
  <path
          style="fill:#ffffff"
          d="M 0,940 V 0 h 940 940 v 940 940 H 940 0 Z m 638,534.078 c 41.77241,-7.6575 84.76556,-31.8099 111.92631,-62.8769 24.69428,-28.2459 41.49788,-62.5683 48.24068,-98.5344 3.72693,-19.8796 3.40286,-56.352 -0.66936,-75.3334 -5.85626,-27.2971 -15.33847,-49.8635 -30.52707,-72.6505 -7.11633,-10.6764 -16.53375,-21.0919 -47.03176,-52.0161 -30.98689,-31.42 -38.84429,-40.1287 -41.92515,-46.4678 -7.20557,-14.8258 -4.08222,-29.701 8.90575,-42.4144 11.58393,-11.339 27.29244,-13.4764 43.19379,-5.877 7.00649,3.3484 30.80602,26.6539 213.22014,208.7943 150.17717,149.9518 208.35977,207.2167 216.59997,213.1839 21.2848,15.4138 49.5443,27.9086 75.8014,33.5154 18.6118,3.9744 51.0352,4.9357 70.3621,2.0862 64.5397,-9.5154 119.2255,-47.9842 149.0091,-104.8206 29.587,-56.4613 30.4777,-125.5136 2.3562,-182.69 -14.8578,-30.2092 -15.7276,-31.1928 -126.7183,-143.31 -59.7648,-60.37147 -63.14,-64.3105 -70.3047,-82.04847 -9.341,-23.12594 -5.5634,-46.89882 11.2001,-70.48495 3.5464,-4.98965 38.0591,-40.55256 79.7079,-82.13328 83.8424,-83.70535 92.8758,-94.14947 107.251,-124 23.6812,-49.17477 26.1799,-105.14348 7.012,-157.06597 -17.3768,-47.07096 -53.5693,-86.92354 -99.5361,-109.60199 -31.198,-15.39201 -60.3995,-21.57913 -95.4073,-20.21457 -42.6959,1.66422 -80.9278,15.43906 -115.3334,41.55422 -40.2786,30.57307 -65.0186,69.23427 -75.507,117.99498 -4.3165,20.06766 -4.3664,59.72994 -0.1,79.47208 4.1608,19.25318 8.7207,32.26198 17.7112,50.52792 12.4826,25.36088 21.7297,36.93088 62.2635,77.90438 24.184,24.44638 37.3612,38.77238 39.3333,42.76228 4.4008,8.9039 4.1237,23.60892 -0.6156,32.66667 -5.574,10.65305 -13.1734,16.36787 -24.8716,18.70375 -9.1714,1.83134 -19.5084,0.3778 -27.9976,-3.93695 C 1140.9702,854.43925 1086.3188,800.68036 938,652.60672 827.26667,542.05641 731.73592,447.62579 725.70947,442.76089 687.99949,412.31933 640.52751,396.81092 592,399.07993 c -31.58789,1.47698 -58.70657,8.62122 -85.33333,22.48054 -61.89563,32.21688 -100.51484,90.72161 -106.70404,161.64732 -3.30367,37.85872 3.74805,74.02214 21.05528,107.97812 13.16064,25.82056 21.01742,34.79289 100.78,115.08945 40.64312,40.91521 76.39993,77.39131 79.45958,81.05797 13.08115,15.67638 20.07584,33.23035 20.07584,50.3826 0,16.79019 -5.43658,31.98732 -16.85254,47.10874 -2.83111,3.75002 -38.9711,41.07493 -80.3111,82.94433 -42.27001,42.8113 -79.15205,81.322 -84.27738,87.9991 -9.4014,12.2478 -21.47344,33.6315 -27.34987,48.446 -5.97683,15.0675 -11.06316,37.5579 -12.71593,56.2265 -5.06786,57.2426 16.08224,115.8722 56.83161,157.5411 30.23796,30.9204 70.48751,51.101 114.67521,57.4968 15.52262,2.2468 50.81482,1.5054 66.66667,-1.4005 z"
          id="path362" />
  <path
          style="fill:#e10045"
          d="m 576.66667,1474.6956 c -12.3958,-1.7751 -36.34131,-7.6503 -46.66667,-11.4499 -14.54713,-5.3532 -36.19155,-17.1593 -49.03968,-26.749 -45.61423,-34.0464 -73.87289,-85.268 -79.82689,-144.6942 -3.94378,-39.3622 8.45269,-87.1625 31.93386,-123.1358 9.64091,-14.77 15.00887,-20.8906 44.43626,-50.6667 15.21962,-15.4 49.32596,-49.9 75.79184,-76.6667 28.86508,-29.1931 50.76542,-52.48038 54.73156,-58.19765 C 625.08076,958.55219 628.24128,933.88825 617.3988,910 609.84595,893.35951 603.74661,886.17075 558.00692,840 446.96193,727.90851 443.77225,724.56717 434.49668,710.6176 420.46853,689.52064 411.50552,668.66527 406.02164,644.36113 401.55608,624.57012 399.60313,604.74737 400.66596,590 c 1.08739,-15.08807 7.56456,-47.26633 11.22743,-55.77721 1.5253,-3.54412 2.77328,-6.99043 2.77328,-7.65846 0,-1.23809 11.24218,-24.53054 14.74037,-30.54028 4.27187,-7.33886 20.01125,-27.80717 26.75167,-34.78924 31.74437,-32.88244 74.67258,-53.82445 122.66925,-59.84273 35.31669,-4.42833 77.38987,3.2246 110.99847,20.19016 8.14633,4.11225 26.46844,15.73759 33.5069,21.26004 4.8918,3.83817 115.59382,113.81921 286.47757,284.61181 137.4872,137.41392 132.929,133.27124 148.5945,135.04858 18.1007,2.05361 30.3337,-2.67804 38.8227,-15.01643 8.1081,-11.78473 8.9866,-29.83264 2.0329,-41.76651 -2.0712,-3.55465 -20.3392,-23.23569 -41.1995,-44.3864 -30.7999,-31.22858 -39.0271,-40.37593 -46.1699,-51.33333 -13.8324,-21.21973 -21.1941,-37.65593 -28.1188,-62.77973 l -4.3789,-15.88694 -0.03,-32.66666 -0.03,-32.66667 4.4331,-15.81504 c 11.7522,-41.92595 29.8086,-71.28884 60.201,-97.89741 15.7735,-13.8097 24.2371,-19.56631 44.0326,-29.94932 33.0891,-17.35566 78.3827,-25.78798 112.6667,-20.9752 63.1966,8.87153 116.2318,43.46348 148.1605,96.63697 20.1147,33.49848 31.1207,80.19921 27.4341,116.40799 -4.6368,45.54285 -20.7178,82.93806 -50.2814,116.92534 -5.741,6.6 -42.068,43.5 -80.7268,82 -74.4804,74.1745 -79.0919,79.43702 -87.2318,99.54742 -4.8853,12.0695 -6.0702,29.68226 -2.7622,41.06109 3.3104,11.38757 9.1416,22.87512 16.6826,32.86488 3.6563,4.84369 37.6348,39.94368 75.5078,77.99998 74.6661,75.0276 85.2612,86.3564 95.8856,102.5266 24.0614,36.6215 36.1388,82.6023 32.5505,123.9268 -1.4116,16.2567 -6.7079,41.7712 -10.5139,50.6504 -1.4878,3.4708 -2.705,6.8248 -2.705,7.4532 0,1.3222 -10.878,24.0442 -14.3478,29.9696 -17.9725,30.6927 -47.0233,57.6496 -79.6522,73.9114 -20.59,10.2617 -26.3283,12.4484 -43.3334,16.5137 -22.4331,5.3629 -34.5535,6.6625 -55.169,5.9152 -36.3353,-1.3173 -70.9621,-12.3872 -102.1643,-32.6612 -6.2333,-4.0503 -13.1333,-8.8387 -15.3333,-10.6411 -2.2,-1.8024 -96.1,-95.2225 -208.6667,-207.6003 -112.56667,-112.3777 -206.81229,-205.6084 -209.43472,-207.1792 -2.62244,-1.5707 -8.77005,-3.7841 -13.66139,-4.9184 -7.75545,-1.7986 -9.91834,-1.8257 -16.90474,-0.2117 -9.57818,2.2128 -16.81311,6.9515 -23.2734,15.2436 -4.81039,6.1743 -8.72575,16.4774 -8.72575,22.9614 0,5.2311 3.91364,17.4418 7.0512,22 1.51433,2.2 19.61663,21.1 40.22731,42 27.58688,27.9741 39.48884,41.0347 45.11072,49.502 14.78233,22.2644 23.64833,42.5207 30.19701,68.992 3.85943,15.6007 4.08043,17.9248 4.08043,42.9128 0,26.8852 -0.67856,32.499 -6.51836,53.9265 -4.21355,15.4604 -14.69604,39.918 -21.39514,49.9187 -1.25802,1.8781 -4.29721,6.4146 -6.75374,10.0813 -12.60894,18.8204 -34.24463,40.0272 -54.15235,53.0789 -9.18328,6.0207 -32.64748,18.2544 -35.01181,18.2544 -0.63963,0 -3.83026,1.1799 -7.09028,2.622 -3.26004,1.442 -13.98631,4.4774 -23.83616,6.7452 -14.84088,3.417 -21.44922,4.2106 -38.5755,4.632 -11.36666,0.2798 -24.26666,-0.013 -28.66666,-0.6369 z"
          id="path348" />
</svg>
